<svg width="76" height="69" viewBox="0 0 76 69" fill="none" xmlns="http://www.w3.org/2000/svg"><path fill-rule="evenodd" clip-rule="evenodd" d="M70.53 30.37c.02-.82.06-1.94-.02-2.23C69.81 12.52 55.45 0 37.8 0S5.69 12.52 4.99 28.14v3H70.5l.02-.77ZM37.8 3c15.96 0 29.12 11.22 29.72 25.14H7.98C8.68 14.22 21.84 3 37.8 3ZM21.24 42.86l-5.38-4-5.49 4L4 38.16l1.8-2.4 4.58 3.3 5.49-4 5.38 4 5.49-4 5.49 4 5.48-4 5.39 4 5.48-4 5.49 4 5.48-4 5.49 4 4.59-3.3 1.7 2.4-6.3 4.7-5.48-4-5.48 4-5.49-4-5.48 4-5.39-4-5.48 4-5.49-4-5.49 4ZM4.3 46.06H71.7c2.4 0 4.29 2.01 4.29 4.21v3.5c0 2.41-2 4.31-4.29 4.31h-1v1c0 5.41-4.38 9.92-9.87 9.92H15.16a9.92 9.92 0 0 1-9.87-9.91v-1h-1c-2.4 0-4.29-1.9-4.29-4.21v-3.5c0-2.31 1.9-4.31 4.29-4.31ZM60.94 66c3.79 0 6.88-3.1 6.88-6.91v-1H8.18v1c0 3.8 3.09 6.9 6.88 6.9h45.88Zm10.77-10.92c.7 0 1.3-.6 1.3-1.3h.1v-3.4c0-.7-.6-1.3-1.3-1.3H4.3c-.7 0-1.3.6-1.3 1.2v3.5c0 .7.6 1.3 1.3 1.3H71.7ZM39.9 15.62a2 2 0 1 1-4 .01 2 2 0 0 1 4 0Zm-9.98-3a2 2 0 1 0 0-4 2 2 0 0 0 0 4Zm17.95-2a2 2 0 1 1-4 0 2 2 0 0 1 4 0Z" fill="#81B3D2"/></svg>